PathFileType	4	(X/Y/Z)	C:\Users\86182\Documents\cortex\Trimmed_M3_H5.trc
DataRate	CameraRate	NumFrames	NumMarkers	Units	OrigDataRate	OrigDataStartFrame	OrigNumFrames
100.00	100.00	       71	2	mm	100.00	181	       901
Frame#	Time	gripper			box			
		X1	Y1	Z1	X2	Y2	Z2	

181	1.800	268.07654	172.58023	212.20206	267.86264	171.00879	72.57026	
182	1.810	268.04507	172.55177	212.62608	267.88309	170.96265	72.99168	
183	1.820	268.02298	172.52048	213.05537	267.90958	170.91264	73.41588	
184	1.830	268.01178	172.49084	213.48926	267.94122	170.86295	73.84429	
185	1.840	268.00974	172.46695	213.92693	267.97546	170.81842	74.27795	
186	1.850	268.01428	172.45003	214.36812	268.00739	170.78366	74.71480	
187	1.860	268.02283	172.43950	214.81140	268.03146	170.76103	75.15028	
188	1.870	268.03229	172.43504	215.25298	268.04367	170.75029	75.58110	
189	1.880	268.03940	172.43712	215.68858	268.04269	170.74963	76.00777	
190	1.890	268.04266	172.44548	216.11630	268.02921	170.75670	76.43326	
191	1.900	268.04257	172.45802	216.53711	268.00360	170.76910	76.85915	
192	1.910	268.04013	172.47145	216.95345	267.96451	170.78491	77.28306	
193	1.920	268.03564	172.48322	217.36729	267.91010	170.80283	77.70113	
194	1.930	268.02811	172.49301	217.77931	267.84119	170.82178	78.11304	
195	1.940	268.01563	172.50226	218.18948	267.76288	170.84024	78.52347	
196	1.950	267.99756	172.51193	218.59915	267.68372	170.85599	78.93849	
197	1.960	267.97668	172.52132	219.01131	267.61398	170.86655	79.36070	
198	1.970	267.95831	172.52832	219.42862	267.56122	170.87094	79.78804	
199	1.980	267.94727	172.53072	219.85155	267.52725	170.87094	80.21712	
200	1.990	267.94595	172.52771	220.27910	267.51059	170.86919	80.64629	
201	2.000	267.95413	172.52097	220.71101	267.51062	170.86639	81.07586	
202	2.010	267.96930	172.51363	221.14844	267.52777	170.86177	81.50715	
203	2.020	267.98825	172.50800	221.59221	267.56036	170.85533	81.94107	
204	2.030	268.00815	172.50490	222.04050	267.60190	170.84908	82.37658	
205	2.040	268.02692	172.50475	222.48863	267.64316	170.84564	82.81055	
206	2.050	268.04324	172.50842	222.93202	267.67755	170.84598	83.24024	
207	2.060	268.05704	172.51616	223.36880	267.70386	170.84828	83.66568	
208	2.070	268.06931	172.52588	223.79951	267.72305	170.84961	84.08862	
209	2.080	268.08115	172.53360	224.22481	267.73431	170.84875	84.50941	
210	2.090	268.09256	172.53618	224.64478	267.73541	170.84712	84.92582	
211	2.100	268.10214	172.53412	225.06056	267.72672	170.84671	85.33536	
212	2.110	268.10770	172.53114	225.47502	267.71259	170.84828	85.73898	
213	2.120	268.10858	172.53084	225.89099	267.69815	170.85127	86.14170	
214	2.130	268.10687	172.53378	226.30969	267.68625	170.85457	86.54916	
215	2.140	268.10526	172.53841	226.73145	267.67758	170.85735	86.96394	
216	2.150	268.10385	172.54390	227.15701	267.67160	170.85960	87.38451	
217	2.160	268.10144	172.55154	227.58755	267.66660	170.86266	87.80789	
218	2.170	268.09869	172.56303	228.02391	267.65988	170.86926	88.23383	
219	2.180	268.09717	172.57875	228.46593	267.64899	170.88260	88.66588	
220	2.190	268.09656	172.59842	228.91196	267.63309	170.90381	89.10783	
221	2.200	268.09540	172.62184	229.35890	267.61243	170.93103	89.55884	
222	2.210	268.09296	172.64870	229.80354	267.58588	170.96176	90.01340	
223	2.220	268.08841	172.67799	230.24352	267.55109	170.99506	90.46591	
224	2.230	268.08075	172.70819	230.67773	267.50949	171.03008	90.91322	
225	2.240	268.07043	172.73706	231.10614	267.47079	171.06229	91.35160	
226	2.250	268.05978	172.76192	231.52905	267.45313	171.08147	91.77295	
227	2.260	268.05063	172.78081	231.94690	267.47913	171.07382	92.16454	
228	2.270	268.04282	172.79399	232.36035	267.57153	171.02557	92.51108	
229	2.280	268.03589	172.80312	232.77057	267.75128	170.92593	92.79768	
230	2.290	268.03101	172.80945	233.17892	268.03470	170.76886	93.01481	
231	2.300	268.03104	172.81305	233.58684	268.42416	170.55655	93.16643	
232	2.310	268.03769	172.81361	233.99640	268.88864	170.30788	93.28069	
233	2.320	268.04932	172.81149	234.41057	269.33853	170.07207	93.42019	
234	2.330	268.06326	172.80774	234.83182	269.62561	169.93010	93.67711	
235	2.340	268.07874	172.80365	235.26093	269.62109	169.95343	94.12698	
236	2.350	268.09662	172.80103	235.69778	269.32651	170.14291	94.76613	
237	2.360	268.11713	172.80217	236.14244	268.87491	170.42624	95.51196	
238	2.370	268.13898	172.80898	236.59422	268.42383	170.71559	96.26561	
239	2.380	268.16071	172.82195	237.05122	268.08145	170.94875	96.95547	
240	2.390	268.18140	172.84015	237.51096	267.90747	171.09007	97.53902	
241	2.400	268.19998	172.86252	237.97093	267.93112	171.12186	97.99460	
242	2.410	268.21390	172.88792	238.42886	268.15918	171.03951	98.31714	
243	2.420	268.22067	172.91391	238.88251	268.57556	170.84962	98.51645	
244	2.430	268.22070	172.93742	239.32974	269.13254	170.57445	98.62010	
245	2.440	268.21667	172.95766	239.76909	269.75372	170.25296	98.67116	
246	2.450	268.21036	172.97647	240.20085	270.37326	169.92213	98.70760	
247	2.460	268.20206	172.99536	240.62622	270.94897	169.60924	98.75769	
248	2.470	268.19266	173.01340	241.04584	271.41028	169.35829	98.87059	
249	2.480	268.18359	173.02864	241.46071	271.65735	169.22780	99.11244	
250	2.490	268.17560	173.04047	241.87402	271.65509	169.23744	99.50673	
251	2.500	268.16837	173.04958	242.28970	271.48407	169.34096	100.00554	
